<?xml version="1.0" encoding="UTF-8"?>
<svg width="435px" height="105px" viewBox="0 0 435 105" version="1.1" xmlns="http://www.w3.org/2000/svg" xmlns:xlink="http://www.w3.org/1999/xlink">
    <title>Group@2x</title>
    <defs>
        <path d="M246.402,6.857 C244.268,10.058 243.202,14.592 243.202,20.458 L243.202,20.458 C243.202,26.325 244.268,30.858 246.402,34.059 L246.402,34.059 C249.411,38.63 253.736,40.916 259.374,40.916 L259.374,40.916 C265.012,40.916 269.336,38.63 272.346,34.059 L272.346,34.059 C274.48,30.858 275.546,26.325 275.546,20.458 L275.546,20.458 C275.546,14.592 274.48,10.058 272.346,6.857 L272.346,6.857 C269.336,2.286 265.012,0 259.374,0 L259.374,0 C253.774,0 249.449,2.286 246.402,6.857 L246.402,6.857 Z M250.631,31.373 C249.03,28.973 248.23,25.335 248.23,20.458 L248.23,20.458 C248.23,15.544 249.03,11.906 250.631,9.543 L250.631,9.543 C252.649,6.496 255.564,4.973 259.374,4.973 L259.374,4.973 C263.183,4.973 266.098,6.496 268.116,9.543 L268.116,9.543 C269.717,11.906 270.518,15.544 270.518,20.458 L270.518,20.458 C270.518,25.335 269.717,28.973 268.116,31.373 L268.116,31.373 C266.098,34.421 263.183,35.943 259.374,35.943 L259.374,35.943 C255.564,35.943 252.649,34.421 250.631,31.373 L250.631,31.373 Z M208.916,6.857 C206.783,10.058 205.717,14.592 205.717,20.458 L205.717,20.458 C205.717,26.325 206.783,30.858 208.916,34.059 L208.916,34.059 C211.925,38.63 216.251,40.916 221.887,40.916 L221.887,40.916 C227.525,40.916 231.85,38.63 234.862,34.059 L234.862,34.059 C236.993,30.858 238.059,26.325 238.059,20.458 L238.059,20.458 C238.059,14.592 236.993,10.058 234.862,6.857 L234.862,6.857 C231.85,2.286 227.525,0 221.887,0 L221.887,0 C216.289,0 211.964,2.286 208.916,6.857 L208.916,6.857 Z M213.146,31.373 C211.544,28.973 210.745,25.335 210.745,20.458 L210.745,20.458 C210.745,15.544 211.544,11.906 213.146,9.543 L213.146,9.543 C215.164,6.496 218.078,4.973 221.887,4.973 L221.887,4.973 C225.697,4.973 228.612,6.496 230.631,9.543 L230.631,9.543 C232.231,11.906 233.031,15.544 233.031,20.458 L233.031,20.458 C233.031,25.335 232.231,28.973 230.631,31.373 L230.631,31.373 C228.612,34.421 225.697,35.943 221.887,35.943 L221.887,35.943 C218.078,35.943 215.164,34.421 213.146,31.373 L213.146,31.373 Z M39.429,6.857 C37.295,10.058 36.229,14.592 36.229,20.458 L36.229,20.458 C36.229,26.325 37.295,30.858 39.429,34.059 L39.429,34.059 C42.438,38.63 46.763,40.916 52.401,40.916 L52.401,40.916 C58.039,40.916 62.364,38.63 65.372,34.059 L65.372,34.059 C67.506,30.858 68.572,26.325 68.572,20.458 L68.572,20.458 C68.572,14.592 67.506,10.058 65.372,6.857 L65.372,6.857 C62.364,2.286 58.039,0 52.401,0 L52.401,0 C46.801,0 42.477,2.286 39.429,6.857 L39.429,6.857 Z M43.658,31.373 C42.057,28.973 41.258,25.335 41.258,20.458 L41.258,20.458 C41.258,15.544 42.057,11.906 43.658,9.543 L43.658,9.543 C45.676,6.496 48.59,4.973 52.401,4.973 L52.401,4.973 C56.21,4.973 59.124,6.496 61.144,9.543 L61.144,9.543 C62.745,11.906 63.544,15.544 63.544,20.458 L63.544,20.458 C63.544,25.335 62.745,28.973 61.144,31.373 L61.144,31.373 C59.124,34.421 56.21,35.943 52.401,35.943 L52.401,35.943 C48.59,35.943 45.676,34.421 43.658,31.373 L43.658,31.373 Z M282.403,0.515 L282.403,40.401 L294.689,40.401 C299.528,40.401 303.128,39.735 305.489,38.401 L305.489,38.401 C308.537,36.726 310.383,33.697 311.032,29.316 L311.032,29.316 C311.336,27.258 311.49,24.306 311.49,20.458 L311.49,20.458 C311.49,16.572 311.336,13.62 311.032,11.6 L311.032,11.6 C310.383,7.221 308.537,4.191 305.489,2.515 L305.489,2.515 C303.128,1.182 299.528,0.515 294.689,0.515 L294.689,0.515 L282.403,0.515 Z M287.432,5.43 L294.689,5.43 C298.269,5.43 300.747,5.734 302.118,6.343 L302.118,6.343 C304.327,7.296 305.641,9.258 306.062,12.229 L306.062,12.229 C306.327,14.096 306.461,16.84 306.461,20.458 L306.461,20.458 C306.461,24.039 306.327,26.782 306.062,28.688 L306.062,28.688 C305.641,31.659 304.327,33.621 302.118,34.572 L302.118,34.572 C300.747,35.144 298.269,35.43 294.689,35.43 L294.689,35.43 L287.432,35.43 L287.432,5.43 Z M196.517,0.515 L189.773,28.916 L183.03,0.515 L178.402,0.515 L171.658,28.916 L164.915,0.515 L159.716,0.515 L169.316,40.401 L174.002,40.401 L180.745,12.4 L187.431,40.401 L192.117,40.401 L201.716,0.515 L196.517,0.515 Z M151.259,0.515 L141.201,20.858 L131.087,0.515 L125.488,0.515 L138.688,27.029 L138.688,40.401 L143.658,40.401 L143.658,27.144 L156.859,0.515 L151.259,0.515 Z M104.173,0.515 L104.173,40.401 L127.772,40.401 L127.772,35.487 L109.145,35.487 L109.145,0.515 L104.173,0.515 Z M75.429,0.515 L75.429,40.401 L99.03,40.401 L99.03,35.487 L80.401,35.487 L80.401,0.515 L75.429,0.515 Z M24.344,0.515 L24.344,17.373 L5.03,17.373 L5.03,0.515 L0,0.515 L0,40.401 L5.03,40.401 L5.03,22.115 L24.344,22.115 L24.344,40.401 L29.373,40.401 L29.373,0.515 L24.344,0.515 Z" id="path-1"></path>
        <linearGradient x1="90.2988328%" y1="50.000131%" x2="5.66538537%" y2="50.000131%" id="linearGradient-3">
            <stop stop-color="#E3205F" offset="0%"></stop>
            <stop stop-color="#691E57" offset="100%"></stop>
        </linearGradient>
        <path d="M1.682,0.008 L-7.10542736e-15,1.979 C12.031,17.599 16.993,54.577 16.993,54.577 L16.993,54.577 C31.108,44.25 41.512,23.781 41.512,23.781 L41.512,23.781 C24.635,0.94 5.192,0 2.104,0 L2.104,0 C1.827,0 1.682,0.008 1.682,0.008" id="path-4"></path>
        <linearGradient x1="48.610613%" y1="16.163336%" x2="57.0226057%" y2="61.1911902%" id="linearGradient-6">
            <stop stop-color="#E7272F" offset="0%"></stop>
            <stop stop-color="#AB2128" offset="100%"></stop>
        </linearGradient>
        <path d="M0,1.128 C14.303,22.614 16.353,54.555 16.353,54.555 L16.353,54.555 L17.418,53.813 C16.293,24.328 1.09,0 1.09,0 L1.09,0 L0,1.128 Z" id="path-7"></path>
        <path d="M0,40.938 C15.986,48.032 38.917,46.857 38.917,46.857 L38.917,46.857 C51.337,18.51 39.69,0.479 39.69,0.479 L39.69,0.479 L37.144,0 C29.592,18.213 0,40.938 0,40.938" id="path-9"></path>
        <linearGradient x1="80.7488308%" y1="13.7697749%" x2="46.2273698%" y2="89.1026443%" id="linearGradient-11">
            <stop stop-color="#EFD334" offset="0%"></stop>
            <stop stop-color="#C4612D" offset="100%"></stop>
        </linearGradient>
        <path d="M-7.10542736e-15,40.794 L1.174,41.347 C26.18,25.684 39.702,0.383 39.702,0.383 L39.702,0.383 L38.18,0 C26.675,23.107 -7.10542736e-15,40.794 -7.10542736e-15,40.794" id="path-12"></path>
        <path d="M14.372,36.646 C45.127,33.197 54.9,14.082 54.9,14.082 L54.9,14.082 L54.037,11.64 C34.492,14.226 7.10542736e-15,0 7.10542736e-15,0 L7.10542736e-15,0 C1.868,17.39 14.372,36.646 14.372,36.646" id="path-14"></path>
        <linearGradient x1="69.8543109%" y1="58.9457873%" x2="5.26166812%" y2="42.9575423%" id="linearGradient-16">
            <stop stop-color="#E56A2D" offset="0%"></stop>
            <stop stop-color="#C6382D" offset="100%"></stop>
        </linearGradient>
        <path d="M0.108,1.293 C26.192,15.09 54.862,14.119 54.862,14.119 L54.862,14.119 L54.431,12.61 C28.672,14.226 -7.10542736e-15,0 -7.10542736e-15,0 L-7.10542736e-15,0 L0.108,1.293 Z" id="path-17"></path>
        <path d="M-1.77635684e-15,30.465 C18.057,55.598 39.509,54.769 39.509,54.769 L39.509,54.769 L41.217,52.822 C29.397,37.041 24.928,0 24.928,0 L24.928,0 C10.678,10.138 -1.77635684e-15,30.465 -1.77635684e-15,30.465" id="path-19"></path>
        <linearGradient x1="53.8600753%" y1="69.8676238%" x2="39.4954186%" y2="29.7220227%" id="linearGradient-21">
            <stop stop-color="#61BB46" offset="0%"></stop>
            <stop stop-color="#619444" offset="100%"></stop>
        </linearGradient>
        <path d="M-3.55271368e-15,0.727 C0.731,30.226 15.605,54.755 15.605,54.755 L15.605,54.755 L16.711,53.641 C2.695,31.965 1.074,0 1.074,0 L1.074,0 L-3.55271368e-15,0.727 Z" id="path-22"></path>
        <path d="M5.99,0.04 C1.462,10.093 0.003,18.868 0,26 L0,26 L0,26.075 C0.013,38.918 4.746,46.409 4.746,46.409 L4.746,46.409 L7.286,46.912 C15.023,28.777 44.843,6.354 44.843,6.354 L44.843,6.354 C32.21,0.594 15.149,0 8.652,0 L8.652,0 C6.965,0 5.99,0.04 5.99,0.04" id="path-24"></path>
        <linearGradient x1="23.2321416%" y1="60.5039024%" x2="57.2742717%" y2="4.90200631%" id="linearGradient-26">
            <stop stop-color="#36BFC6" offset="0%"></stop>
            <stop stop-color="#165D69" offset="100%"></stop>
        </linearGradient>
        <path d="M-1.77635684e-15,40.572 L1.519,40.97 C13.257,17.982 40.112,0.567 40.112,0.567 L40.112,0.567 L38.945,0 C13.78,15.41 -1.77635684e-15,40.572 -1.77635684e-15,40.572" id="path-27"></path>
        <path d="M40.527,1.42108547e-14 C9.772,3.448 -1.77635684e-15,22.563 -1.77635684e-15,22.563 L-1.77635684e-15,22.563 L0.861,25.005 C20.406,22.417 54.898,36.646 54.898,36.646 L54.898,36.646 C53.03,19.257 40.527,1.42108547e-14 40.527,1.42108547e-14 Z" id="path-29"></path>
        <linearGradient x1="34.7616891%" y1="42.3941543%" x2="79.9194761%" y2="50.5199884%" id="linearGradient-31">
            <stop stop-color="#E3205F" offset="0%"></stop>
            <stop stop-color="#691E57" offset="100%"></stop>
        </linearGradient>
        <path d="M-1.77635684e-15,0.014 L0.432,1.522 C26.193,-0.094 54.863,14.134 54.863,14.134 L54.863,14.134 L54.756,12.84 C31.889,0.745 7.035,0 1.251,0 L1.251,0 C0.437,0 -1.77635684e-15,0.014 -1.77635684e-15,0.014" id="path-32"></path>
    </defs>
    <g id="Page-1" stroke="none" stroke-width="1" fill="none" fill-rule="evenodd">
        <g id="Web-Assets" transform="translate(-219.000000, -159.000000)">
            <g id="Group" transform="translate(219.000000, 159.001000)">
                <g id="Group-3" transform="translate(123.252000, 5.421000)">
                    <mask id="mask-2" fill="white">
                        <use xlink:href="#path-1"></use>
                    </mask>
                    <g id="Clip-2"></g>
                    <path d="M246.402,6.857 C244.268,10.058 243.202,14.592 243.202,20.458 L243.202,20.458 C243.202,26.325 244.268,30.858 246.402,34.059 L246.402,34.059 C249.411,38.63 253.736,40.916 259.374,40.916 L259.374,40.916 C265.012,40.916 269.336,38.63 272.346,34.059 L272.346,34.059 C274.48,30.858 275.546,26.325 275.546,20.458 L275.546,20.458 C275.546,14.592 274.48,10.058 272.346,6.857 L272.346,6.857 C269.336,2.286 265.012,0 259.374,0 L259.374,0 C253.774,0 249.449,2.286 246.402,6.857 L246.402,6.857 Z M250.631,31.373 C249.03,28.973 248.23,25.335 248.23,20.458 L248.23,20.458 C248.23,15.544 249.03,11.906 250.631,9.543 L250.631,9.543 C252.649,6.496 255.564,4.973 259.374,4.973 L259.374,4.973 C263.183,4.973 266.098,6.496 268.116,9.543 L268.116,9.543 C269.717,11.906 270.518,15.544 270.518,20.458 L270.518,20.458 C270.518,25.335 269.717,28.973 268.116,31.373 L268.116,31.373 C266.098,34.421 263.183,35.943 259.374,35.943 L259.374,35.943 C255.564,35.943 252.649,34.421 250.631,31.373 L250.631,31.373 Z M208.916,6.857 C206.783,10.058 205.717,14.592 205.717,20.458 L205.717,20.458 C205.717,26.325 206.783,30.858 208.916,34.059 L208.916,34.059 C211.925,38.63 216.251,40.916 221.887,40.916 L221.887,40.916 C227.525,40.916 231.85,38.63 234.862,34.059 L234.862,34.059 C236.993,30.858 238.059,26.325 238.059,20.458 L238.059,20.458 C238.059,14.592 236.993,10.058 234.862,6.857 L234.862,6.857 C231.85,2.286 227.525,0 221.887,0 L221.887,0 C216.289,0 211.964,2.286 208.916,6.857 L208.916,6.857 Z M213.146,31.373 C211.544,28.973 210.745,25.335 210.745,20.458 L210.745,20.458 C210.745,15.544 211.544,11.906 213.146,9.543 L213.146,9.543 C215.164,6.496 218.078,4.973 221.887,4.973 L221.887,4.973 C225.697,4.973 228.612,6.496 230.631,9.543 L230.631,9.543 C232.231,11.906 233.031,15.544 233.031,20.458 L233.031,20.458 C233.031,25.335 232.231,28.973 230.631,31.373 L230.631,31.373 C228.612,34.421 225.697,35.943 221.887,35.943 L221.887,35.943 C218.078,35.943 215.164,34.421 213.146,31.373 L213.146,31.373 Z M39.429,6.857 C37.295,10.058 36.229,14.592 36.229,20.458 L36.229,20.458 C36.229,26.325 37.295,30.858 39.429,34.059 L39.429,34.059 C42.438,38.63 46.763,40.916 52.401,40.916 L52.401,40.916 C58.039,40.916 62.364,38.63 65.372,34.059 L65.372,34.059 C67.506,30.858 68.572,26.325 68.572,20.458 L68.572,20.458 C68.572,14.592 67.506,10.058 65.372,6.857 L65.372,6.857 C62.364,2.286 58.039,0 52.401,0 L52.401,0 C46.801,0 42.477,2.286 39.429,6.857 L39.429,6.857 Z M43.658,31.373 C42.057,28.973 41.258,25.335 41.258,20.458 L41.258,20.458 C41.258,15.544 42.057,11.906 43.658,9.543 L43.658,9.543 C45.676,6.496 48.59,4.973 52.401,4.973 L52.401,4.973 C56.21,4.973 59.124,6.496 61.144,9.543 L61.144,9.543 C62.745,11.906 63.544,15.544 63.544,20.458 L63.544,20.458 C63.544,25.335 62.745,28.973 61.144,31.373 L61.144,31.373 C59.124,34.421 56.21,35.943 52.401,35.943 L52.401,35.943 C48.59,35.943 45.676,34.421 43.658,31.373 L43.658,31.373 Z M282.403,0.515 L282.403,40.401 L294.689,40.401 C299.528,40.401 303.128,39.735 305.489,38.401 L305.489,38.401 C308.537,36.726 310.383,33.697 311.032,29.316 L311.032,29.316 C311.336,27.258 311.49,24.306 311.49,20.458 L311.49,20.458 C311.49,16.572 311.336,13.62 311.032,11.6 L311.032,11.6 C310.383,7.221 308.537,4.191 305.489,2.515 L305.489,2.515 C303.128,1.182 299.528,0.515 294.689,0.515 L294.689,0.515 L282.403,0.515 Z M287.432,5.43 L294.689,5.43 C298.269,5.43 300.747,5.734 302.118,6.343 L302.118,6.343 C304.327,7.296 305.641,9.258 306.062,12.229 L306.062,12.229 C306.327,14.096 306.461,16.84 306.461,20.458 L306.461,20.458 C306.461,24.039 306.327,26.782 306.062,28.688 L306.062,28.688 C305.641,31.659 304.327,33.621 302.118,34.572 L302.118,34.572 C300.747,35.144 298.269,35.43 294.689,35.43 L294.689,35.43 L287.432,35.43 L287.432,5.43 Z M196.517,0.515 L189.773,28.916 L183.03,0.515 L178.402,0.515 L171.658,28.916 L164.915,0.515 L159.716,0.515 L169.316,40.401 L174.002,40.401 L180.745,12.4 L187.431,40.401 L192.117,40.401 L201.716,0.515 L196.517,0.515 Z M151.259,0.515 L141.201,20.858 L131.087,0.515 L125.488,0.515 L138.688,27.029 L138.688,40.401 L143.658,40.401 L143.658,27.144 L156.859,0.515 L151.259,0.515 Z M104.173,0.515 L104.173,40.401 L127.772,40.401 L127.772,35.487 L109.145,35.487 L109.145,0.515 L104.173,0.515 Z M75.429,0.515 L75.429,40.401 L99.03,40.401 L99.03,35.487 L80.401,35.487 L80.401,0.515 L75.429,0.515 Z M24.344,0.515 L24.344,17.373 L5.03,17.373 L5.03,0.515 L0,0.515 L0,40.401 L5.03,40.401 L5.03,22.115 L24.344,22.115 L24.344,40.401 L29.373,40.401 L29.373,0.515 L24.344,0.515 Z" id="Fill-1" fill="url(#linearGradient-3)" mask="url(#mask-2)"></path>
                </g>
                <g id="Group-6" transform="translate(54.284000, 0.700000)">
                    <mask id="mask-5" fill="white">
                        <use xlink:href="#path-4"></use>
                    </mask>
                    <g id="Clip-5"></g>
                    <path d="M1.682,0.008 L-7.10542736e-15,1.979 C12.031,17.599 16.993,54.577 16.993,54.577 L16.993,54.577 C31.108,44.25 41.512,23.781 41.512,23.781 L41.512,23.781 C24.635,0.94 5.192,0 2.104,0 L2.104,0 C1.827,0 1.682,0.008 1.682,0.008" id="Fill-4" fill="url(#linearGradient-6)" mask="url(#mask-5)"></path>
                </g>
                <g id="Group-9" transform="translate(55.182000, 0.449000)">
                    <mask id="mask-8" fill="white">
                        <use xlink:href="#path-7"></use>
                    </mask>
                    <g id="Clip-8"></g>
                    <path d="M0,1.128 C14.303,22.614 16.353,54.555 16.353,54.555 L16.353,54.555 L17.418,53.813 C16.293,24.328 1.09,0 1.09,0 L1.09,0 L0,1.128 Z" id="Fill-7" mask="url(#mask-8)"></path>
                </g>
                <g id="Group-12" transform="translate(58.411000, 29.696000)">
                    <mask id="mask-10" fill="white">
                        <use xlink:href="#path-9"></use>
                    </mask>
                    <g id="Clip-11"></g>
                    <path d="M0,40.938 C15.986,48.032 38.917,46.857 38.917,46.857 L38.917,46.857 C51.337,18.51 39.69,0.479 39.69,0.479 L39.69,0.479 L37.144,0 C29.592,18.213 0,40.938 0,40.938" id="Fill-10" fill="url(#linearGradient-11)" mask="url(#mask-10)"></path>
                </g>
                <g id="Group-15" transform="translate(58.776000, 29.927000)">
                    <mask id="mask-13" fill="white">
                        <use xlink:href="#path-12"></use>
                    </mask>
                    <g id="Clip-14"></g>
                    <path d="M-7.10542736e-15,40.794 L1.174,41.347 C26.18,25.684 39.702,0.383 39.702,0.383 L39.702,0.383 L38.18,0 C26.675,23.107 -7.10542736e-15,40.794 -7.10542736e-15,40.794" id="Fill-13" mask="url(#mask-13)"></path>
                </g>
                <g id="Group-18" transform="translate(38.689000, 67.515000)">
                    <mask id="mask-15" fill="white">
                        <use xlink:href="#path-14"></use>
                    </mask>
                    <g id="Clip-17"></g>
                    <path d="M14.372,36.646 C45.127,33.197 54.9,14.082 54.9,14.082 L54.9,14.082 L54.037,11.64 C34.492,14.226 7.10542736e-15,0 7.10542736e-15,0 L7.10542736e-15,0 C1.868,17.39 14.372,36.646 14.372,36.646" id="Fill-16" fill="url(#linearGradient-16)" mask="url(#mask-15)"></path>
                </g>
                <g id="Group-21" transform="translate(38.797000, 67.874000)">
                    <mask id="mask-18" fill="white">
                        <use xlink:href="#path-17"></use>
                    </mask>
                    <g id="Clip-20"></g>
                    <path d="M0.108,1.293 C26.192,15.09 54.862,14.119 54.862,14.119 L54.862,14.119 L54.431,12.61 C28.672,14.226 -7.10542736e-15,0 -7.10542736e-15,0 L-7.10542736e-15,0 L0.108,1.293 Z" id="Fill-19" mask="url(#mask-18)"></path>
                </g>
                <g id="Group-24" transform="translate(7.179000, 49.146000)">
                    <mask id="mask-20" fill="white">
                        <use xlink:href="#path-19"></use>
                    </mask>
                    <g id="Clip-23"></g>
                    <path d="M-1.77635684e-15,30.465 C18.057,55.598 39.509,54.769 39.509,54.769 L39.509,54.769 L41.217,52.822 C29.397,37.041 24.928,0 24.928,0 L24.928,0 C10.678,10.138 -1.77635684e-15,30.465 -1.77635684e-15,30.465" id="Fill-22" fill="url(#linearGradient-21)" mask="url(#mask-20)"></path>
                </g>
                <g id="Group-27" transform="translate(30.772000, 49.416000)">
                    <mask id="mask-23" fill="white">
                        <use xlink:href="#path-22"></use>
                    </mask>
                    <g id="Clip-26"></g>
                    <path d="M-3.55271368e-15,0.727 C0.731,30.226 15.605,54.755 15.605,54.755 L15.605,54.755 L16.711,53.641 C2.695,31.965 1.074,0 1.074,0 L1.074,0 L-3.55271368e-15,0.727 Z" id="Fill-25" mask="url(#mask-23)"></path>
                </g>
                <g id="Group-30" transform="translate(0.000000, 27.414000)">
                    <mask id="mask-25" fill="white">
                        <use xlink:href="#path-24"></use>
                    </mask>
                    <g id="Clip-29"></g>
                    <path d="M5.99,0.04 C1.462,10.093 0.003,18.868 0,26 L0,26 L0,26.075 C0.013,38.918 4.746,46.409 4.746,46.409 L4.746,46.409 L7.286,46.912 C15.023,28.777 44.843,6.354 44.843,6.354 L44.843,6.354 C32.21,0.594 15.149,0 8.652,0 L8.652,0 C6.965,0 5.99,0.04 5.99,0.04" id="Fill-28" fill="url(#linearGradient-26)" mask="url(#mask-25)"></path>
                </g>
                <g id="Group-33" transform="translate(4.368000, 33.111000)">
                    <mask id="mask-28" fill="white">
                        <use xlink:href="#path-27"></use>
                    </mask>
                    <g id="Clip-32"></g>
                    <path d="M-1.77635684e-15,40.572 L1.519,40.97 C13.257,17.982 40.112,0.567 40.112,0.567 L40.112,0.567 L38.945,0 C13.78,15.41 -1.77635684e-15,40.572 -1.77635684e-15,40.572" id="Fill-31" mask="url(#mask-28)"></path>
                </g>
                <g id="Group-36" transform="translate(9.200000, 0.000000)">
                    <mask id="mask-30" fill="white">
                        <use xlink:href="#path-29"></use>
                    </mask>
                    <g id="Clip-35"></g>
                    <path d="M40.527,1.42108547e-14 C9.772,3.448 -1.77635684e-15,22.563 -1.77635684e-15,22.563 L-1.77635684e-15,22.563 L0.861,25.005 C20.406,22.417 54.898,36.646 54.898,36.646 L54.898,36.646 C53.03,19.257 40.527,1.42108547e-14 40.527,1.42108547e-14 Z" id="Fill-34" fill="url(#linearGradient-31)" mask="url(#mask-30)"></path>
                </g>
                <g id="Group-39" transform="translate(9.127000, 22.153000)">
                    <mask id="mask-33" fill="white">
                        <use xlink:href="#path-32"></use>
                    </mask>
                    <g id="Clip-38"></g>
                    <path d="M-1.77635684e-15,0.014 L0.432,1.522 C26.193,-0.094 54.863,14.134 54.863,14.134 L54.863,14.134 L54.756,12.84 C31.889,0.745 7.035,0 1.251,0 L1.251,0 C0.437,0 -1.77635684e-15,0.014 -1.77635684e-15,0.014" id="Fill-37" mask="url(#mask-33)"></path>
                </g>
                <g id="Group-52" transform="translate(123.805100, 52.462200)">
                    <path d="M23.021,11.9168 C23.021,9.4528 22.218,7.7168 20.613,6.7078 C19.417,5.9618 17.439,5.5878 14.675,5.5878 L4.929,5.5878 L4.929,18.3028 L14.675,18.3028 C17.439,18.3028 19.417,17.9098 20.613,17.1258 C22.218,16.1558 23.021,14.4188 23.021,11.9168 M27.95,11.9168 C27.95,16.2118 26.382,19.3298 23.245,21.2718 C21.229,22.5038 18.372,23.1188 14.675,23.1188 L4.929,23.1188 L4.929,39.8668 L0,39.8668 L0,0.7708 L14.675,0.7708 C18.372,0.7708 21.229,1.3868 23.245,2.6188 C26.382,4.5618 27.95,7.6598 27.95,11.9168" id="Fill-40" fill="#27BDC3"></path>
                    <polygon id="Fill-42" fill="#27BDC3" points="34.1109 39.8668 39.2079 39.8668 39.2079 0.7698 34.1109 0.7698"></polygon>
                    <path d="M74.8872,7.3241 L71.0782,10.4051 C69.5472,8.5761 68.2402,7.3051 67.1572,6.5951 C65.7012,5.6261 63.9832,5.1391 62.0042,5.1391 C54.7592,5.1391 51.1382,10.2001 51.1382,20.3191 C51.1382,30.4381 54.7592,35.4981 62.0042,35.4981 C63.9832,35.4981 65.7012,35.0131 67.1572,34.0421 C68.2402,33.3331 69.5472,32.0631 71.0782,30.2331 L74.8312,33.3131 C72.8142,35.7411 70.9662,37.4591 69.2862,38.4671 C67.1942,39.7361 64.7672,40.3711 62.0042,40.3711 C56.4772,40.3711 52.2582,38.1311 49.3452,33.6491 C47.2542,30.4761 46.2092,26.0321 46.2092,20.3191 C46.2092,14.5691 47.2542,10.1251 49.3452,6.9881 C52.2582,2.5071 56.4772,0.2661 62.0042,0.2661 C64.7672,0.2661 67.1942,0.9021 69.2862,2.1711 C70.9662,3.1791 72.8332,4.8971 74.8872,7.3241" id="Fill-44" fill="#27BDC3"></path>
                    <polygon id="Fill-45" fill="#27BDC3" points="107.3178 5.5877 95.3858 5.5877 95.3858 39.8667 90.4588 39.8667 90.4588 5.5877 78.5268 5.5877 78.5268 0.7707 107.3178 0.7707"></polygon>
                    <path d="M141.1479,23.4559 C141.1479,34.7329 136.3489,40.3709 126.7519,40.3709 C117.1559,40.3709 112.3579,34.7329 112.3579,23.4559 L112.3579,0.7699 L117.2869,0.7699 L117.2869,23.4559 C117.2869,27.3399 117.8659,30.1959 119.0229,32.0249 C120.4799,34.4159 123.0559,35.6099 126.7519,35.6099 C130.4499,35.6099 133.0439,34.4159 134.5389,32.0249 C135.6589,30.1959 136.2189,27.3399 136.2189,23.4559 L136.2189,0.7699 L141.1479,0.7699 L141.1479,23.4559 Z" id="Fill-46" fill="#27BDC3"></path>
                    <path d="M171.0571,11.7489 C171.0571,7.6039 168.3491,5.5319 162.9361,5.5319 L154.1421,5.5319 L154.1421,18.5259 L163.1041,18.5259 C168.4061,18.5259 171.0571,16.2669 171.0571,11.7489 L171.0571,11.7489 Z M177.3301,39.8669 L171.8411,39.8669 L163.4401,25.4719 C162.3561,23.6419 160.9551,22.7279 159.2391,22.7279 L154.1421,22.7279 L154.1421,39.8669 L149.3251,39.8669 L149.3251,0.7699 L162.9361,0.7699 C166.8191,0.7699 169.8811,1.6109 172.1211,3.2909 C174.6221,5.1959 175.8741,8.0159 175.8741,11.7489 C175.8741,14.4759 175.0621,16.8649 173.4381,18.9189 C171.8141,20.9729 169.6571,22.2239 166.9681,22.6719 C167.2291,22.9709 167.5841,23.4369 168.0331,24.0719 L177.3301,39.8669 Z" id="Fill-47" fill="#27BDC3"></path>
                    <polygon id="Fill-48" fill="#27BDC3" points="208.7524 39.867 183.3234 39.867 183.3234 0.77 208.7524 0.77 208.7524 5.588 188.1964 5.588 188.1964 17.463 206.1764 17.463 206.1764 21.943 188.1964 21.943 188.1964 35.05 208.7524 35.05"></polygon>
                    <path d="M243.6479,28.4969 C243.6479,32.1569 242.1919,35.1059 239.2789,37.3469 C236.6269,39.3629 233.3979,40.3709 229.5889,40.3709 C220.6639,40.3709 215.4929,36.3199 214.0739,28.2169 L218.9469,27.3769 C219.4689,30.3269 220.6459,32.4549 222.4749,33.7619 C224.1189,34.9199 226.4889,35.4979 229.5889,35.4979 C232.0159,35.4979 234.0699,34.9569 235.7509,33.8739 C237.7289,32.5669 238.7189,30.7739 238.7189,28.4969 C238.7189,25.6589 236.7209,23.6049 232.7259,22.3359 C229.0289,21.2899 225.3329,20.2259 221.6349,19.1419 C217.6389,17.4259 215.6419,14.5689 215.6419,10.5729 C215.6419,7.2119 216.9869,4.6169 219.6749,2.7869 C222.0279,1.1829 224.9589,0.3789 228.4689,0.3789 C232.0529,0.3789 234.9469,1.0599 237.1509,2.4229 C239.3529,3.7869 241.2199,6.0559 242.7509,9.2279 L238.2709,11.3009 C237.1509,8.9859 235.8989,7.3989 234.5179,6.5399 C233.1359,5.6819 231.1199,5.2519 228.4689,5.2519 C223.2039,5.2519 220.5709,7.0249 220.5709,10.5729 C220.5709,12.8509 222.5679,14.5689 226.5639,15.7259 C233.4719,17.7419 237.1689,18.8819 237.6549,19.1419 C241.6499,21.1219 243.6479,24.2399 243.6479,28.4969" id="Fill-49" fill="#27BDC3"></path>
                    <polygon id="Fill-50" fill="#35BFC6" points="247.1333 0.8793 245.3503 0.8793 245.3503 5.9533 244.4473 5.9533 244.4473 0.8793 242.6643 0.8793 242.6643 0.0003 247.1333 0.0003"></polygon>
                    <polygon id="Fill-51" fill="#35BFC6" points="253.0434 5.953 252.1294 5.953 252.1294 2.593 250.8674 5.953 250.1094 5.953 248.8554 2.593 248.8554 5.953 247.9434 5.953 247.9434 -5.68434189e-14 248.7784 -5.68434189e-14 250.4844 4.546 252.1984 -5.68434189e-14 253.0434 -5.68434189e-14"></polygon>
                </g>
            </g>
        </g>
    </g>
</svg>